<?xml version="1.0" encoding="UTF-8"?>
<svg version="1.1" xmlns="http://www.w3.org/2000/svg" width="1024" height="1024">
<path d="M0 0 C7.38656866 5.8716961 11.71653546 14.62325047 13.3046875 23.83203125 C13.54813017 27.72526977 13.53588038 31.61940432 13.5546875 35.51953125 C13.585625 37.04803711 13.585625 37.04803711 13.6171875 38.60742188 C13.64844165 44.9559206 13.07783938 51.0164006 12.00268555 57.25585938 C11.8690029 58.04187373 11.73532026 58.82788809 11.59758663 59.63772106 C10.23105622 67.51192894 8.57069818 75.3077679 6.80859375 83.1015625 C6.64086519 83.85040018 6.47313663 84.59923786 6.30032539 85.37076759 C1.34531704 107.47911433 -4.09562963 129.47426886 -9.48260498 151.48034668 C-16.94750495 181.91105641 -16.94750495 181.91105641 -23.76171875 212.4921875 C-23.97327449 213.49302148 -23.97327449 213.49302148 -24.18910408 214.51407433 C-30.30461826 243.58446244 -37.79133078 280.6855717 -20.3828125 307.39453125 C-14.32671951 315.21428302 -8.24466526 318.37903433 1.25390625 320.97265625 C4.03888293 321.75715672 6.64260034 322.70595357 9.3046875 323.83203125 C9.1171875 325.64453125 9.1171875 325.64453125 8.3046875 327.83203125 C-0.46359738 334.40824491 -15.51620389 332.84313925 -25.86376953 331.56396484 C-41.83635039 328.65873853 -55.06811248 318.84457181 -64.71875 306.17578125 C-85.33695729 275.56359575 -82.40198553 237.56753079 -75.78564453 203.01171875 C-70.06728037 174.27704088 -61.66240109 146.34959949 -53.0078125 118.39453125 C-48.63130745 104.2546274 -44.34727383 90.08924784 -40.17489624 75.88766479 C-39.57553472 73.8498037 -38.97392493 71.81260214 -38.36978149 69.77615356 C-35.25775189 59.27468379 -32.3244533 48.75716813 -29.84765625 38.0859375 C-29.64274063 37.21726547 -29.43782501 36.34859344 -29.22669983 35.45359802 C-27.83866241 29.27280295 -27.13707068 23.14822634 -26.6953125 16.83203125 C-31.31639867 17.59001539 -33.64765607 19.04929901 -37.2578125 22.08203125 C-38.18722656 22.8503125 -39.11664062 23.61859375 -40.07421875 24.41015625 C-42.59292174 26.7374228 -44.58363525 29.13912006 -46.6953125 31.83203125 C-48.35536811 33.50528285 -50.02223318 35.171802 -51.6953125 36.83203125 C-63.15127466 49.57799251 -72.18808269 64.00668461 -80.6953125 78.83203125 C-81.36385254 79.99653809 -81.36385254 79.99653809 -82.04589844 81.18457031 C-104.72622548 121.01913235 -119.35261699 163.1709833 -130.63916016 207.45019531 C-130.91129082 208.50594505 -130.91129082 208.50594505 -131.18891907 209.58302307 C-131.68193743 211.49723656 -132.16894351 213.41299572 -132.65551758 215.32885742 C-134.61722584 221.93805015 -136.29973049 226.51525197 -142.51953125 229.94921875 C-146.86357704 231.71179388 -150.42850221 231.6096961 -154.8359375 230.09765625 C-160.14357269 227.69939146 -163.04899424 224.7130882 -165.9453125 219.64453125 C-168.21003022 211.15183979 -166.16697356 201.99962593 -164.7109375 193.51953125 C-164.49173645 192.2255542 -164.2725354 190.93157715 -164.04669189 189.59838867 C-161.01067797 172.06634133 -156.88517222 154.75345217 -152.88952637 137.42114258 C-151.79370717 132.66595432 -150.70636151 127.90898601 -149.63040924 123.14926147 C-149.13503446 120.97293805 -148.62776587 118.79963596 -148.11981201 116.6262207 C-146.14392081 107.99297013 -145.0441006 99.681259 -144.6953125 90.83203125 C-145.3553125 90.83203125 -146.0153125 90.83203125 -146.6953125 90.83203125 C-146.93894531 91.36957031 -147.18257812 91.90710938 -147.43359375 92.4609375 C-148.67769981 94.79893249 -150.1241787 96.88810523 -151.66308594 99.0390625 C-179.81802879 138.98346501 -196.7590265 189.50518438 -213.95703125 234.88543701 C-214.71308383 236.87888813 -215.47154329 238.87141052 -216.23046875 240.86376953 C-221.99095843 255.99681709 -227.63748679 271.14733174 -232.75463867 286.51293945 C-237.52511644 300.66183519 -237.52511644 300.66183519 -242.1953125 305.33203125 C-248.76856124 308.14913785 -255.86606411 307.89666118 -262.5078125 305.26953125 C-269.76428107 301.52935507 -273.95598305 296.49734788 -276.6953125 288.83203125 C-282.44093163 244.78228457 -253.25268 189.8865403 -239.55889893 148.38818359 C-218.55147027 91.03923252 -218.55147027 91.03923252 -209.4453125 31.26953125 C-209.4246875 30.54056641 -209.4040625 29.81160156 -209.3828125 29.06054688 C-209.34820185 24.25399265 -210.04859496 21.00125378 -212.6953125 16.83203125 C-217.09509442 14.63214029 -222.61226504 15.33651845 -227.2734375 16.4453125 C-251.9413295 24.82796442 -274.23917441 42.73423578 -293.03515625 60.35546875 C-295.19452223 62.3658036 -297.3831967 64.30025878 -299.6328125 66.20703125 C-308.42241722 73.86131202 -316.49245153 82.23281188 -323.7265625 91.3671875 C-325.44276077 93.51584049 -327.21853221 95.5511873 -329.0703125 97.58203125 C-350.37785106 121.79962716 -370.87556595 156.48436262 -369.9765625 189.59765625 C-369.43286429 195.85018566 -368.60120726 201.59882241 -363.6953125 205.89453125 C-358.67850107 209.1345553 -354.96656808 208.86361344 -349.19140625 208.671875 C-346.6953125 208.83203125 -346.6953125 208.83203125 -344.6953125 210.83203125 C-344.76953125 212.7890625 -344.76953125 212.7890625 -345.6953125 214.83203125 C-347.83984375 216.28125 -347.83984375 216.28125 -350.5078125 217.51953125 C-351.38050781 217.93589844 -352.25320313 218.35226562 -353.15234375 218.78125 C-360.85204202 221.96284575 -368.38486549 221.47718025 -376.21484375 218.8671875 C-386.77826767 214.45882949 -394.30985624 206.50924413 -398.6875 196 C-405.31664612 175.16187015 -399.36770727 155.48085527 -389.77880859 136.59301758 C-384.63476508 126.72698741 -378.38019991 117.70965655 -371.6953125 108.83203125 C-371.11620117 108.05351807 -371.11620117 108.05351807 -370.52539062 107.25927734 C-362.66396282 96.73439779 -353.82792485 87.25892757 -344.6953125 77.83203125 C-344.19580078 77.31060547 -343.69628906 76.78917969 -343.18164062 76.25195312 C-337.87513775 70.71439788 -332.31177493 65.74226481 -326.31640625 60.9609375 C-324.01918033 59.09508336 -321.8582069 57.16180504 -319.6953125 55.14453125 C-302.25423967 39.53446073 -281.83557009 26.75311705 -260.6953125 16.83203125 C-259.7465625 16.3628125 -258.7978125 15.89359375 -257.8203125 15.41015625 C-238.19242911 5.94671247 -215.9150628 1.25729479 -194.6953125 7.83203125 C-191.83324779 8.91980922 -189.28836141 10.20860533 -186.6953125 11.83203125 C-185.69757813 12.44498047 -185.69757813 12.44498047 -184.6796875 13.0703125 C-176.12093423 18.86870451 -170.41356872 27.92883647 -167.6953125 37.83203125 C-165.31533229 50.41192663 -165.38578655 62.08262926 -167.0703125 74.70703125 C-167.20606689 75.75826172 -167.34182129 76.80949219 -167.48168945 77.89257812 C-168.39995168 84.89982575 -169.4000323 91.88323392 -170.6953125 98.83203125 C-170.30601562 98.18878906 -169.91671875 97.54554688 -169.515625 96.8828125 C-153.88239491 71.63190398 -153.88239491 71.63190398 -142.64453125 68.20703125 C-136.5746761 67.03928357 -132.12030999 67.97157803 -126.6953125 70.83203125 C-117.68391313 77.01632494 -115.94116134 85.62362744 -113.6953125 95.83203125 C-113.44064209 95.3215625 -113.18597168 94.81109375 -112.92358398 94.28515625 C-99.42510156 67.42511095 -83.58265149 42.54522878 -62.6953125 20.83203125 C-62.10878906 20.19394531 -61.52226562 19.55585938 -60.91796875 18.8984375 C-46.35196967 3.47770987 -20.83912118 -13.20223256 0 0 Z M-172.6953125 100.83203125 C-171.6953125 102.83203125 -171.6953125 102.83203125 -171.6953125 102.83203125 Z " fill="#FEA5C3" transform="translate(559.6953125,287.16796875)"/>
<path d="M0 0 C1.35052668 1.14671992 2.68642473 2.31113125 4 3.5 C4.86625 4.263125 5.7325 5.02625 6.625 5.8125 C18.43365072 19.17492055 22.66548697 34.3191576 22.2421875 52.07421875 C20.28381569 79.77570381 10.87991069 104.53889171 -6 126.5 C-6.71671875 127.45519531 -7.4334375 128.41039062 -8.171875 129.39453125 C-9.07679688 130.43673828 -9.07679688 130.43673828 -10 131.5 C-10.66 131.5 -11.32 131.5 -12 131.5 C-12.21914063 132.06074219 -12.43828125 132.62148438 -12.6640625 133.19921875 C-19.22879435 144.50514583 -35.8113054 152.47240507 -47.77734375 155.78125 C-58.95664003 158.27457184 -70.22667658 158.51344255 -80.4375 152.75 C-86.39799986 148.81454176 -90.33643185 144.22901428 -93 137.5 C-93.4375 134.375 -93.4375 134.375 -93 131.5 C-91.20412315 129.12687702 -89.73136969 127.85388856 -87.0625 126.5625 C-83.7869385 126.46324056 -82.59055812 127.45165172 -80 129.5 C-78.87270423 130.96161633 -77.77082603 132.4430025 -76.6875 133.9375 C-72.45653913 139.56962324 -67.9699308 142.14153022 -61.0625 143.375 C-50.68454809 144.14373718 -43.70225693 139.3876488 -36.05859375 132.8359375 C-14.66756151 112.64127172 -5.49706972 79.53328372 -4.65307617 51.00854492 C-4.49923968 37.60604214 -6.41106486 25.10261747 -15.4375 14.6875 C-24.17639329 7.22746914 -32.59462506 5.47310763 -43.92529297 6.26611328 C-70.50118885 9.26207801 -93.47509994 25.81524363 -112.62890625 43.35546875 C-114.73078868 45.25651233 -116.88205927 47.06588185 -119.0625 48.875 C-123.07986182 52.37813951 -126.31351095 56.36142302 -129.61328125 60.53515625 C-131.1632974 62.4606264 -132.76336249 64.34722138 -134.41796875 66.18359375 C-175.58487901 112.0837645 -200.36447585 180.25550192 -197.78515625 241.78125 C-196.48274699 264.7618495 -191.92737533 289.38688735 -174 305.5 C-163.27344642 314.32685983 -150.84043058 317.38405388 -137.16796875 316.09375 C-104.94448366 312.44501957 -77.93172746 295.51492697 -54 274.5 C-53.04480469 273.66855469 -52.08960938 272.83710937 -51.10546875 271.98046875 C-46.17999339 267.64765686 -46.17999339 267.64765686 -41.84765625 262.7421875 C-41.23792969 262.00226563 -40.62820313 261.26234375 -40 260.5 C-39.34 260.5 -38.68 260.5 -38 260.5 C-37.75765625 259.93410156 -37.5153125 259.36820313 -37.265625 258.78515625 C-35.75459147 256.05690126 -33.92256524 254.17840752 -31.75 251.9375 C-28.34975067 248.31023838 -25.33610333 244.65641986 -22.47265625 240.58984375 C-21.86647461 239.73140869 -21.26029297 238.87297363 -20.63574219 237.98852539 C-19.43480992 236.26704977 -18.25129466 234.53327138 -17.08691406 232.78686523 C-12.8687723 226.75599348 -12.8687723 226.75599348 -8.1953125 225.37890625 C-5 225.5 -5 225.5 -3.0625 226.5625 C-1.5083314 229.39657216 -1.70101999 231.28312651 -2 234.5 C-3.19770342 237.025592 -4.3882254 239.22346743 -5.875 241.5625 C-6.48021484 242.53932739 -6.48021484 242.53932739 -7.09765625 243.53588867 C-13.16661692 253.1493558 -20.22248177 261.89047676 -27.9296875 270.2421875 C-29.78428866 272.26475254 -31.55035161 274.33483984 -33.3125 276.4375 C-62.91417649 310.06661546 -106.62595459 330.16866716 -150.86767578 333.33203125 C-177.87240625 334.7801415 -203.54302596 327.43760094 -224 309.5 C-244.64691653 290.36548911 -253.78199942 262.7082028 -255.16845703 235.15185547 C-256.47456322 195.28555982 -247.28249603 158.27804917 -230 122.5 C-229.62004883 121.71270508 -229.24009766 120.92541016 -228.84863281 120.11425781 C-219.39684504 100.80251869 -207.30207113 83.05439225 -193.3125 66.75 C-190.74430138 63.74596402 -188.19247985 60.7520975 -185.79296875 57.609375 C-185.20128906 56.91328125 -184.60960937 56.2171875 -184 55.5 C-183.34 55.5 -182.68 55.5 -182 55.5 C-181.74089844 54.90445313 -181.48179687 54.30890625 -181.21484375 53.6953125 C-179.90209487 51.32307818 -178.64218073 50.09581691 -176.5625 48.375 C-173.30966695 45.63821355 -170.20811932 42.80135054 -167.125 39.875 C-155.92734596 29.67269298 -143.11566244 21.03624993 -130 13.5 C-128.90300781 12.85804688 -127.80601562 12.21609375 -126.67578125 11.5546875 C-93.4120878 -7.37473536 -34.27446007 -25.93133492 0 0 Z " fill="#FEE2DA" transform="translate(813,292.5)"/>
<path d="M0 0 C0.66 0.99 1.32 1.98 2 3 C-2.02758682 14.79009845 -10.83309288 24.2758549 -19.2890625 33.1328125 C-21.32664247 35.28783224 -23.2178497 37.43619009 -25.0625 39.75 C-29.0837274 44.50767311 -34.1231065 48.16905524 -39 52 C-39.95648437 52.78375 -40.91296875 53.5675 -41.8984375 54.375 C-79.46114182 84.50241323 -126.99676445 97.27139116 -174 103 C-175.44729492 103.17789063 -175.44729492 103.17789063 -176.92382812 103.359375 C-240.08721695 110.73355799 -305.10819486 100.01757977 -366.02996826 83.79077148 C-429.92743387 66.66268643 -429.92743387 66.66268643 -495 55 C-495.90927246 54.87254395 -496.81854492 54.74508789 -497.75537109 54.61376953 C-552.51681266 47.05698254 -621.57123941 49.26532058 -667.984375 82.67578125 C-672.03118747 85.79476237 -675.92396974 89.06652526 -679.7578125 92.4453125 C-680.86769531 93.21488281 -680.86769531 93.21488281 -682 94 C-682.99 93.67 -683.98 93.34 -685 93 C-683.51821742 87.48862161 -679.63800772 84.18388781 -675.6875 80.3125 C-674.96836426 79.60279053 -674.24922852 78.89308105 -673.50830078 78.16186523 C-633.74427459 39.50166238 -579.599316 27.78547625 -525.6574707 27.94848633 C-470.81532119 28.72091097 -418.19387961 42.57758711 -365.6796875 57.125 C-314.95330581 71.16881039 -263.49799379 82.11636933 -210.66162109 82.95751953 C-208.4255454 82.99320814 -206.19220347 83.05104562 -203.95703125 83.12109375 C-137.40118428 84.39956765 -66.52325722 65.01738192 -17.45678711 18.49707031 C-12.52399611 13.69254326 -8.07554583 8.60450741 -3.8203125 3.1953125 C-2 1 -2 1 0 0 Z " fill="#FEA7C2" transform="translate(856,582)"/>
<path d="M0 0 C0.66 0.99 1.32 1.98 2 3 C-2.02758682 14.79009845 -10.83309288 24.2758549 -19.2890625 33.1328125 C-21.32664247 35.28783224 -23.2178497 37.43619009 -25.0625 39.75 C-29.0837274 44.50767311 -34.1231065 48.16905524 -39 52 C-39.95648437 52.78375 -40.91296875 53.5675 -41.8984375 54.375 C-79.46114182 84.50241323 -126.99676445 97.27139116 -174 103 C-175.44729492 103.17789063 -175.44729492 103.17789063 -176.92382812 103.359375 C-205.39876888 106.68376002 -234.51538291 105.63700998 -263 103 C-262.79375 102.0925 -262.5875 101.185 -262.375 100.25 C-261.96546516 96.70069809 -262.38248302 95.9989001 -264 93 C-264.1953125 90.203125 -264.1953125 90.203125 -264.125 87.25 C-264.09792969 85.77273438 -264.09792969 85.77273438 -264.0703125 84.265625 C-264.04710937 83.51796875 -264.02390625 82.7703125 -264 82 C-264.99 81.67 -265.98 81.34 -267 81 C-266.505 80.01 -266.505 80.01 -266 79 C-265.20231201 79.08564209 -264.40462402 79.17128418 -263.58276367 79.25952148 C-245.0514297 81.2216939 -226.64247177 82.60165659 -208 83 C-206.64582077 83.04125636 -205.29165197 83.08285834 -203.9375 83.125 C-137.36180104 84.33546725 -66.54927403 65.04204867 -17.45678711 18.49707031 C-12.52399611 13.69254326 -8.07554583 8.60450741 -3.8203125 3.1953125 C-2 1 -2 1 0 0 Z " fill="#FED8D4" transform="translate(856,582)"/>
<path d="M0 0 C0.79768799 0.08564209 1.59537598 0.17128418 2.41723633 0.25952148 C28.62330437 3.03432571 54.63509754 4.24861724 81 4 C81 4.33 81 4.66 81 5 C76.63106263 5.84062776 72.5164802 6.11732956 68.0703125 6.09765625 C66.78125 6.09443359 65.4921875 6.09121094 64.1640625 6.08789062 C62.81770764 6.07953733 61.47135348 6.07107241 60.125 6.0625 C58.75520996 6.0574783 57.38541815 6.05291657 56.015625 6.04882812 C52.6770381 6.03707254 49.33854185 6.02063964 46 6 C45.67 6.66 45.34 7.32 45 8 C45 7.34 45 6.68 45 6 C44.01 6.66 43.02 7.32 42 8 C42.15054379 9.9711223 42.15054379 9.9711223 43 12 C45.05134471 13.06546563 45.05134471 13.06546563 47.5 13.625 C49.96875 14.2890625 49.96875 14.2890625 52 15 C52.495 15.99 52.495 15.99 53 17 C52.34 17.66 51.68 18.32 51 19 C51.495 20.485 51.495 20.485 52 22 C51.34 22 50.68 22 50 22 C50 22.66 50 23.32 50 24 C37.5683224 30.2158388 16.1685111 25.14174611 3 24 C3.1841748 23.05157227 3.36834961 22.10314453 3.55810547 21.12597656 C4.05115183 17.63815028 3.59920976 16.96495825 2 14 C1.8046875 11.203125 1.8046875 11.203125 1.875 8.25 C1.90207031 6.77273438 1.90207031 6.77273438 1.9296875 5.265625 C1.96449219 4.14414062 1.96449219 4.14414062 2 3 C1.01 2.67 0.02 2.34 -1 2 C-0.67 1.34 -0.34 0.68 0 0 Z M44 13 C45 15 45 15 45 15 Z M49 15 C50 17 50 17 50 17 Z " fill="#FEC3CA" transform="translate(590,661)"/>
<path d="M0 0 C0.33 0 0.66 0 1 0 C2.34630362 10.09727712 2.34630362 19.90272288 1 30 C0.67 30 0.34 30 0 30 C-1.03351814 19.82382142 -0.85803148 10.16437295 0 0 Z " fill="#FDD4D3" transform="translate(833,327)"/>
<path d="" fill="#FCBFCE" transform="translate(0,0)"/>
<path d="" fill="#FCBFCE" transform="translate(0,0)"/>
<path d="" fill="#FCBFCE" transform="translate(0,0)"/>
<path d="" fill="#FCBFCE" transform="translate(0,0)"/>
<path d="" fill="#FCBFCE" transform="translate(0,0)"/>
</svg>
